<?xml version="1.0" standalone="no"?>
<!DOCTYPE svg PUBLIC "-//W3C//DTD SVG 20010904//EN"
 "http://www.w3.org/TR/2001/REC-SVG-20010904/DTD/svg10.dtd">
<svg version="1.0" xmlns="http://www.w3.org/2000/svg"
 width="173.000000pt" height="173.000000pt" viewBox="0 0 173.000000 173.000000"
 preserveAspectRatio="xMidYMid meet">

<g transform="translate(0.000000,173.000000) scale(0.100000,-0.100000)"
fill="#000000" stroke="none">
<path d="M774 1719 c-184 -17 -373 -108 -514 -249 -144 -144 -234 -331 -248
-519 -22 -274 61 -505 249 -691 101 -101 206 -167 336 -210 307 -102 641 -22
873 210 232 232 312 565 210 873 -128 385 -494 622 -906 586z m293 -69 c101
-26 242 -96 320 -159 119 -98 227 -266 270 -421 13 -48 17 -101 17 -205 0
-161 -13 -223 -74 -351 -78 -163 -203 -289 -365 -370 -130 -64 -224 -86 -370
-86 -146 0 -240 22 -370 86 -162 81 -287 207 -365 370 -61 128 -74 190 -74
351 0 105 4 156 18 205 89 319 349 548 681 600 81 12 218 3 312 -20z"/>
<path d="M765 1634 c-136 -22 -295 -93 -397 -178 -179 -148 -279 -364 -280
-601 -1 -127 17 -213 68 -324 31 -67 35 -72 51 -60 10 8 161 143 335 301 266
241 314 288 295 292 -12 3 -89 7 -172 11 -244 9 -366 18 -363 25 2 5 285 255
358 316 12 10 86 8 380 -12 201 -13 378 -24 394 -24 l30 0 -30 31 c-74 79
-223 165 -346 199 -72 21 -257 34 -323 24z"/>
<path d="M1471 978 c-7 -205 -14 -383 -16 -394 -3 -12 -77 -85 -167 -164 -90
-79 -173 -152 -185 -163 -13 -11 -25 -18 -27 -16 -3 3 1 126 9 274 7 148 13
270 12 271 -1 1 -15 -9 -32 -22 -16 -13 -24 -24 -17 -24 6 0 12 -11 12 -25 0
-22 -4 -25 -40 -25 -52 0 -110 -48 -110 -91 0 -26 -3 -29 -31 -29 -46 0 -104
-54 -100 -92 2 -26 0 -28 -33 -28 -28 0 -45 -8 -74 -35 -27 -25 -32 -35 -19
-35 11 0 17 -8 17 -25 0 -23 -4 -25 -47 -25 -45 0 -53 -5 -113 -60 -76 -70
-76 -69 44 -119 152 -63 347 -77 501 -36 173 46 341 160 441 302 100 138 147
285 147 453 0 158 -37 289 -120 419 l-40 62 -12 -373z"/>
<path d="M818 713 c46 -2 118 -2 160 0 42 1 5 3 -83 3 -88 0 -123 -2 -77 -3z"/>
<path d="M663 593 c42 -2 112 -2 155 0 42 1 7 3 -78 3 -85 0 -120 -2 -77 -3z"/>
<path d="M528 473 c46 -2 118 -2 160 0 42 1 5 3 -83 3 -88 0 -123 -2 -77 -3z"/>
<path d="M418 353 c46 -2 118 -2 160 0 42 1 5 3 -83 3 -88 0 -123 -2 -77 -3z"/>
</g>
</svg>
